<svg height="512" viewBox="0 0 64 64" width="512" xmlns="http://www.w3.org/2000/svg"><path d="m61 52h-1v-37a5.006 5.006 0 0 0 -5-5h-46a5.006 5.006 0 0 0 -5 5v37h-1a1 1 0 0 0 -1 1v4a5.006 5.006 0 0 0 5 5h50a5.006 5.006 0 0 0 5-5v-4a1 1 0 0 0 -1-1zm-55-37a3 3 0 0 1 3-3h46a3 3 0 0 1 3 3v37h-52zm21 39h10v1a1 1 0 0 1 -1 1h-8a1 1 0 0 1 -1-1zm33 3a3 3 0 0 1 -3 3h-50a3 3 0 0 1 -3-3v-3h21v1a3 3 0 0 0 3 3h8a3 3 0 0 0 3-3v-1h21z"/><path d="m16 21h2v2h-2z"/><path d="m20 21h2v2h-2z"/><path d="m24 21h2v2h-2z"/><path d="m55 50a1 1 0 0 0 1-1v-34a1 1 0 0 0 -1-1h-46a1 1 0 0 0 -1 1v34a1 1 0 0 0 1 1zm-31.353-9.937-2.253-2.253 1.416-1.416 2.253 2.253a1 1 0 0 0 1.278.114 9.684 9.684 0 0 1 3.837-1.6 1 1 0 0 0 .822-.981v-3.18h2v3.18a1 1 0 0 0 .822.984 9.684 9.684 0 0 1 3.837 1.6 1 1 0 0 0 1.278-.114l2.253-2.25 1.415 1.415-2.252 2.253a1 1 0 0 0 -.114 1.278 9.7 9.7 0 0 1 1.6 3.837 1 1 0 0 0 .981.817h3.18v2h-6.072a8 8 0 1 0 -15.856 0h-6.072v-2h3.18a1 1 0 0 0 .984-.822 9.684 9.684 0 0 1 1.6-3.837 1 1 0 0 0 -.117-1.278zm2.353 6.937a6 6 0 1 1 11.91 1h-11.82a6.126 6.126 0 0 1 -.09-1zm24-23h-36v-4h36zm-40 24v-32h44v32h-2v-30h-40v30zm4-22h36v22h-2v-3a1 1 0 0 0 -1-1h-3.375a11.591 11.591 0 0 0 -1.288-3.093l2.39-2.39a1 1 0 0 0 0-1.414l-2.83-2.83a1 1 0 0 0 -1.414 0l-2.389 2.389a11.627 11.627 0 0 0 -3.094-1.287v-3.375a1 1 0 0 0 -1-1h-4a1 1 0 0 0 -1 1v3.375a11.588 11.588 0 0 0 -3.093 1.287l-2.39-2.389a1 1 0 0 0 -1.414 0l-2.83 2.83a1 1 0 0 0 0 1.414l2.389 2.39a11.588 11.588 0 0 0 -1.287 3.093h-3.375a1 1 0 0 0 -1 1v3h-2z"/><path d="m18 32h2v2h-2z"/><path d="m18 28h2v2h-2z"/><path d="m16 30h2v2h-2z"/><path d="m20 30h2v2h-2z"/><path d="m44 32h2v2h-2z"/><path d="m44 28h2v2h-2z"/><path d="m46 30h2v2h-2z"/><path d="m42 30h2v2h-2z"/></svg>